<svg width="264" height="264" xmlns="http://www.w3.org/2000/svg" xmlns:xlink="http://www.w3.org/1999/xlink" xml:space="preserve" overflow="hidden"><g><g><g><g><g><path d="M233.96 160.814 233.96 141.362C233.96 128.212 212.866 119.446 187.387 115.884L187.387 100.269C187.387 95.8854 184.922 89.8583 173.69 84.1052L173.69 64.6542C173.69 46.8469 135.609 37.2583 99.7208 37.2583 63.8323 37.2583 25.7521 46.8469 25.7521 64.6542L25.7521 86.5708C25.7521 93.1458 30.9573 98.625 39.45 103.008L39.45 122.185C39.45 122.185 39.45 122.185 39.45 122.459 28.2177 128.212 25.7521 134.514 25.7521 138.623L25.7521 160.54C25.7521 178.347 63.8323 187.935 99.7208 187.935L99.7208 198.894C99.7208 216.701 137.801 226.29 173.69 226.29 209.578 226.29 247.658 216.701 247.658 198.894L247.658 176.977C247.658 172.868 245.193 166.567 233.96 160.814ZM242.179 177.251C242.179 187.661 213.961 199.168 173.69 199.168 141.636 199.168 117.254 191.771 108.487 183.552 108.487 183.552 108.487 183.552 108.487 183.552 125.199 188.757 142.458 191.223 159.718 190.949 193.141 190.949 228.755 182.456 233.139 167.115 239.166 170.128 242.179 173.69 242.179 177.251ZM195.606 203.277 195.606 219.715C192.045 219.989 188.483 220.536 184.648 220.536L184.648 204.099C188.483 204.099 192.045 203.825 195.606 203.277ZM201.085 202.729C204.921 202.181 208.482 201.633 212.044 200.811L212.044 216.975C208.756 217.797 204.921 218.345 201.085 218.893L201.085 202.729ZM217.523 199.442C221.358 198.62 224.92 197.25 228.481 195.88L228.481 211.77C224.92 213.414 221.358 214.509 217.523 215.605L217.523 199.442ZM129.856 215.605C126.021 214.509 122.459 213.414 118.898 211.77L118.898 195.88C122.459 197.25 126.021 198.346 129.856 199.442L129.856 215.605ZM135.335 200.811C138.897 201.633 142.458 202.181 146.294 202.729L146.294 219.167C142.458 218.619 138.623 217.797 135.335 217.249L135.335 200.811ZM151.773 203.277C155.334 203.551 159.17 204.099 162.731 204.099L162.731 220.536C158.896 220.262 155.334 219.989 151.773 219.715L151.773 203.277ZM86.0229 141.636 86.0229 142.458C82.1875 141.91 78.3521 141.089 75.0646 140.541L75.0646 124.377C78.626 125.199 82.1875 125.747 86.0229 126.295L86.0229 141.636ZM91.5021 163.553 91.5021 152.595C93.9677 154.786 96.7073 156.704 99.7208 158.074L99.7208 173.69C94.5156 170.128 91.5021 166.841 91.5021 163.553ZM228.481 163.553C228.481 166.841 225.468 170.402 220.262 173.416L220.262 157.8C223.276 156.43 226.016 154.512 228.481 152.321L228.481 163.553ZM214.783 176.155C211.222 177.799 207.66 178.895 203.825 179.991L203.825 163.827C207.66 163.005 211.222 161.635 214.783 160.266L214.783 176.155ZM198.346 181.36C195.058 182.182 191.223 182.73 187.387 183.278L187.387 166.841C191.223 166.293 194.784 165.745 198.346 164.923L198.346 181.36ZM181.908 184.1C178.347 184.374 174.785 184.922 170.95 184.922L170.95 168.484C174.511 168.21 178.347 167.936 181.908 167.662L181.908 184.1ZM165.471 185.196C163.553 185.196 161.909 185.196 159.992 185.196 158.074 185.196 156.43 185.196 154.512 185.196L154.512 168.758C156.43 168.758 158.074 168.758 159.992 168.758 161.909 168.758 163.553 168.758 165.471 168.758L165.471 185.196ZM149.033 185.196C145.198 184.922 141.636 184.648 138.075 184.374L138.075 167.936C141.636 168.21 145.472 168.758 149.033 168.758L149.033 185.196ZM132.596 183.552C128.76 183.004 124.925 182.182 121.637 181.634L121.637 165.471C125.199 166.293 128.76 166.841 132.596 167.389L132.596 183.552ZM116.158 179.991C112.323 178.895 108.761 177.799 105.2 176.155L105.2 160.266C108.761 161.635 112.323 162.731 116.158 163.827L116.158 179.991ZM228.481 141.636C228.481 152.047 200.264 163.553 159.992 163.553 119.72 163.553 91.5021 152.047 91.5021 141.636 91.5021 131.226 119.72 119.72 159.992 119.72 200.264 119.72 228.481 131.226 228.481 141.636ZM91.5021 130.678 91.5021 126.569C93.1458 126.843 94.7896 126.843 96.4333 127.117 94.7896 128.212 93.1458 129.308 91.5021 130.678ZM177.251 114.789C178.895 113.693 180.539 112.597 182.182 111.227L182.182 115.336C180.265 115.062 178.895 115.062 177.251 114.789ZM173.142 90.1323C178.895 93.4198 181.908 96.9813 181.908 100.269 181.908 104.926 175.881 110.131 165.745 113.967 163.827 113.967 161.909 113.967 159.992 113.967 140.815 113.967 120.816 116.706 106.57 122.185 77.8042 121.364 56.4354 114.515 48.4906 106.844 48.4906 106.844 48.4906 106.844 48.4906 106.844 65.2021 112.049 82.4615 114.515 99.7208 114.241 133.144 114.241 168.758 105.748 173.142 90.1323ZM69.5854 122.733 69.5854 138.897C65.75 137.801 62.1885 136.705 58.6271 135.061L58.6271 119.172C62.1885 120.542 66.024 121.911 69.5854 122.733ZM53.1479 116.706 53.1479 132.322C47.9427 129.034 44.9292 125.747 44.9292 122.459L44.9292 111.501C47.3948 113.419 50.1344 115.336 53.1479 116.706ZM44.9292 99.4469 44.9292 83.5573C48.4906 84.9271 52.0521 86.0229 55.8875 87.1187L55.8875 103.282C52.326 102.186 48.4906 101.091 44.9292 99.4469ZM61.3667 104.652 61.3667 88.4885C64.9281 89.3104 68.4896 89.8583 72.325 90.4062L72.325 106.844C68.4896 106.296 64.9281 105.474 61.3667 104.652ZM77.8042 107.392 77.8042 90.9542C81.3656 91.2281 85.201 91.776 88.7625 91.776L88.7625 108.214C84.9271 108.214 81.3656 107.94 77.8042 107.392ZM94.2417 108.487 94.2417 92.05C96.1594 92.05 97.8031 92.05 99.7208 92.05 101.639 92.05 103.282 92.05 105.2 92.05L105.2 108.487C103.282 108.487 101.639 108.487 99.7208 108.487 97.8031 108.487 96.1594 108.761 94.2417 108.487ZM110.679 108.487 110.679 92.05C114.241 91.776 118.076 91.5021 121.637 91.2281L121.637 107.666C118.076 107.94 114.515 108.214 110.679 108.487ZM127.117 106.844 127.117 90.4062C130.952 89.8583 134.514 89.3104 138.075 88.4885L138.075 104.652C134.787 105.474 130.952 106.296 127.117 106.844ZM143.554 103.282 143.554 87.1187C147.39 86.2969 150.951 84.9271 154.512 83.5573L154.512 99.4469C150.951 101.091 147.39 102.186 143.554 103.282ZM159.992 96.7073 159.992 81.0917C163.005 79.7219 165.745 77.8042 168.21 75.6125L168.21 86.5708C168.21 90.1323 165.471 93.4198 159.992 96.7073ZM39.45 96.7073C34.2448 93.4198 31.2312 90.1323 31.2312 86.8448L31.2312 75.8865C33.6969 78.0781 36.4365 79.9958 39.45 81.3656L39.45 96.7073ZM31.2312 64.9281C31.2312 54.5177 59.449 43.0115 99.7208 43.0115 139.993 43.0115 168.21 54.5177 168.21 64.9281 168.21 75.3385 139.993 86.8448 99.7208 86.8448 59.449 86.8448 31.2312 75.0646 31.2312 64.9281ZM40.8198 127.939C45.751 138.075 64.3802 144.65 86.0229 147.664L86.0229 159.992C53.1479 157.8 31.2312 147.664 31.2312 138.623 31.2312 135.061 34.7927 131.5 40.8198 127.939ZM39.45 170.676C34.2448 167.389 31.2312 164.101 31.2312 160.814L31.2312 149.855C33.6969 152.047 36.4365 153.965 39.45 155.334L39.45 170.676ZM55.8875 177.251C52.0521 176.155 48.4906 175.059 44.9292 173.416L44.9292 157.526C48.4906 158.896 52.0521 159.992 55.8875 161.087L55.8875 177.251ZM72.325 180.812C68.4896 180.265 64.6542 179.443 61.3667 178.895L61.3667 162.731C64.9281 163.553 68.4896 164.101 72.325 164.649L72.325 180.812ZM77.8042 164.923C80.5437 165.197 83.2833 165.471 86.2969 165.745 86.5708 167.662 87.6667 169.58 88.7625 171.498L88.7625 182.456C84.9271 182.182 81.3656 181.908 77.8042 181.634L77.8042 164.923ZM94.2417 176.429C95.8854 177.525 97.8031 178.621 99.7208 179.717L99.7208 182.456C97.8031 182.456 96.1594 182.456 94.2417 182.456L94.2417 176.429ZM105.2 199.168 105.2 188.209C107.666 190.401 110.405 192.319 113.419 193.689L113.419 209.304C108.214 205.743 105.2 202.455 105.2 199.168ZM168.21 204.373C170.128 204.373 171.772 204.373 173.69 204.373 175.607 204.373 177.251 204.373 179.169 204.373L179.169 220.81C177.251 220.81 175.607 220.81 173.69 220.81 171.772 220.81 170.128 220.81 168.21 220.81L168.21 204.373ZM233.96 193.415C236.974 192.045 239.714 190.127 242.179 187.935L242.179 198.894C242.179 202.181 239.166 205.743 233.96 208.756L233.96 193.415Z" fill="#000000" fill-rule="nonzero" fill-opacity="1"/></g></g></g></g></g></svg>