<svg width="85" height="85" xmlns="http://www.w3.org/2000/svg" xmlns:xlink="http://www.w3.org/1999/xlink" xml:space="preserve" overflow="hidden"><g><g><path d="M40.6406 35.6327C39.1445 34.2819 37.2139 33.512 35.1989 33.4626 33.6228 33.4132 32.1052 34.0611 31.0507 35.2334 28.8885 37.7435 29.673 41.9944 32.8082 44.7268 34.3039 46.0786 36.2346 46.8495 38.25 46.8996 39.826 46.949 41.3436 46.3011 42.3982 45.1288 44.5639 42.616 43.7794 38.3651 40.6406 35.6327ZM41.0568 43.9698C40.3368 44.7497 39.3105 45.1735 38.25 45.1288 36.6634 45.0758 35.1472 44.4611 33.9717 43.3943 31.6147 41.341 30.8913 38.134 32.3921 36.3924 33.112 35.6125 34.1384 35.1887 35.1989 35.2334 36.7853 35.2864 38.3014 35.9008 39.4772 36.967 41.8377 39.0212 42.5611 42.2282 41.0603 43.9698Z" fill="#18BDCF" fill-rule="nonzero" fill-opacity="1"/><path d="M47.4309 22.4896C46.8524 22.0684 46.1569 21.8387 45.4414 21.8326 44.5658 21.8111 43.7349 22.2183 43.2154 22.9234 42.3629 24.3452 42.8035 26.1877 44.2071 27.0698 44.7858 27.4904 45.4813 27.7197 46.1966 27.7259 47.0722 27.7476 47.9032 27.3403 48.4226 26.6351 49.2776 25.214 48.8364 23.37 47.4309 22.4896ZM46.9793 25.6089C46.7869 25.8404 46.4973 25.9685 46.1966 25.9551 45.8513 25.9486 45.5166 25.835 45.2386 25.6302 44.6424 25.3012 44.3914 24.5747 44.6578 23.9479 44.8505 23.7164 45.1404 23.5883 45.4414 23.6017 45.7867 23.6087 46.1214 23.7225 46.3994 23.9275 47.0262 24.3729 47.2972 25.1582 46.9793 25.6045Z" fill="#18BDCF" fill-rule="nonzero" fill-opacity="1"/><path d="M33.1456 54.9268C32.5428 54.4308 31.7888 54.1556 31.0082 54.1468 30.1979 54.1293 29.4247 54.4855 28.9115 55.1128 27.9731 56.4785 28.3046 58.3446 29.6561 59.3034 30.2591 59.7991 31.013 60.0743 31.7935 60.0835 32.6035 60.101 33.3766 59.7447 33.8893 59.1175 34.8269 57.7517 34.4958 55.8865 33.1456 54.9268ZM32.5036 58.0152C32.3237 58.215 32.0639 58.3241 31.7953 58.3127 31.4195 58.3035 31.0578 58.1667 30.77 57.9248 30.2001 57.5583 29.9975 56.8215 30.2998 56.2151 30.4797 56.0152 30.7395 55.906 31.0082 55.9176 31.3818 55.926 31.7415 56.0612 32.0282 56.301 32.6067 56.6629 32.813 57.4069 32.5036 58.0152Z" fill="#18BDCF" fill-rule="nonzero" fill-opacity="1"/><path d="M58.8262 29.1532 59.1104 28.8681 58.6146 21.5156 45.9859 12.3392 38.2119 13.8125 38.018 14.0064C33.6982 18.3077 30.2662 23.4163 27.9172 29.0417 26.428 32.5745 25.2299 36.223 24.3348 39.9509 23.24 44.8247 21.3439 49.4829 18.7239 53.7359L18.5778 53.9856 19.2861 60.86 32.4647 72.629 38.6573 71.1786 38.8512 70.8971C40.0432 69.1396 40.996 67.2314 41.6845 65.2225 42.8763 61.7805 43.8783 58.2758 44.6861 54.7241 45.9699 49.5001 47.0767 44.9845 50.6901 39.0885 53.009 35.4734 55.7393 32.1394 58.8262 29.1532ZM42.9657 54.3106C42.1715 57.8035 41.1867 61.2502 40.0155 64.6354 39.4141 66.388 38.5974 68.0591 37.5842 69.6106L32.9588 70.6934 20.9844 59.9958 20.4027 54.3787C23.0364 50.0548 24.9451 45.3293 26.0534 40.3892 26.929 36.7435 28.1004 33.1751 29.5561 29.7199 31.7795 24.3915 35.0138 19.5444 39.0805 15.4461L45.5627 14.2216 56.9022 22.4621 57.29 28.1864C54.2173 31.1926 51.4972 34.5392 49.1822 38.1615 45.4272 44.2939 44.2877 48.9317 42.9657 54.3106Z" fill="#18BDCF" fill-rule="nonzero" fill-opacity="1"/><path d="M83.0521 56.7278C82.9011 56.3887 82.5547 56.1798 82.1844 56.2045 79.2776 56.3957 76.6833 54.3212 74.2758 52.1776 72.2906 50.4012 70.4838 48.4351 68.881 46.3073 67.1553 44.1035 65.9078 42.5115 63.0921 41.642 59.6682 40.5795 55.9619 42.0369 53.1879 43.6785 53.5748 42.9445 54.0016 42.191 54.4815 41.4074 59.7417 32.8189 70.5907 24.7341 70.5907 24.7341L42.7453 4.50146C34.8484 9.65821 28.5738 16.9464 24.6482 25.5221 24.2304 23.825 23.3756 22.2666 22.1691 21.0021 20.4151 19.2861 18.7301 19.0621 16.598 18.7779 14.5408 18.5458 12.5139 18.0977 10.5506 17.4409 8.56641 16.7724 5.80479 15.6214 4.73432 13.3539 4.52558 12.9117 3.99788 12.7224 3.55567 12.9312 3.38726 13.0106 3.2482 13.1412 3.15828 13.3043 1.63005 16.0756 0.999635 20.4974 2.5863 23.0952 3.64479 24.556 5.14123 25.6415 6.85844 26.1942 6.86186 26.1969 6.8624 26.202 6.85962 26.2054 6.85927 26.2059 6.85887 26.2062 6.85844 26.2066 6.03801 27.2156 5.79019 28.5738 6.20146 29.8076 6.69995 31.4013 8.44156 32.9951 11.313 33.4546 11.3174 33.4549 11.3208 33.4586 11.3205 33.463 11.3204 33.4644 11.32 33.4658 11.3192 33.467 11.1192 33.8453 11.0133 34.2662 11.0102 34.6942 11.0198 35.4116 11.3591 36.0846 11.9301 36.519 13.5239 37.8409 16.3421 37.6426 17.6472 37.462 18.1288 38.3164 18.8008 39.0484 19.6111 39.6011L19.8174 39.7455C18.751 44.1527 16.9554 48.3508 14.5049 52.1661 13.1458 54.3895 11.3135 56.2861 9.13839 57.7212L34.5268 80.379C34.5268 80.379 42.0192 77.651 45.8717 66.6719 47.0669 63.2605 48.0756 59.7865 48.8936 56.2656 49.0452 56.3039 49.2042 56.3005 49.354 56.2558L49.5922 56.1744C50.3864 57.6583 52.2396 60.8104 54.0104 61.6392 54.7371 62.0291 55.6106 62.0291 56.3373 61.6392 56.8178 61.3603 57.2085 60.9499 57.4635 60.4562 57.4649 60.4526 57.4689 60.4507 57.4727 60.4521 57.4746 60.4528 57.4761 60.4543 57.4768 60.4562 59.9038 63.905 62.4157 64.6035 64.0493 64.6035 64.2534 64.6037 64.4573 64.5928 64.6602 64.5708 65.5783 64.4882 66.4233 64.036 67.0013 63.3179 67.4951 62.6636 67.817 61.8959 67.9371 61.0849 67.9371 61.0769 67.9442 61.0743 67.9495 61.0796 69.3591 62.2572 71.5939 63.7819 73.8012 63.8766 77.4315 64.0537 81.2388 60.7617 83.0007 57.553 83.1459 57.3011 83.165 56.9957 83.0521 56.7278ZM73.8792 62.1076C71.0538 61.9871 67.8096 58.5446 67.7778 58.5101 67.4441 58.1527 66.8838 58.1334 66.5263 58.467 66.322 58.6577 66.2198 58.9336 66.2504 59.2114 66.3636 60.253 66.1415 61.3035 65.6165 62.2103 65.3333 62.562 64.916 62.7794 64.4654 62.8097 62.1633 63.0594 59.8542 61.3151 57.9603 57.8921 57.7231 57.4644 57.1843 57.3099 56.7565 57.547 56.509 57.6843 56.342 57.9317 56.3072 58.2126 56.1682 59.3353 55.7892 59.9188 55.4802 60.0897 55.4111 60.1269 55.2031 60.242 54.7612 60.0348 53.5217 59.454 51.6738 56.432 50.8034 54.663 50.5893 54.2284 50.0659 54.0465 49.6285 54.2548 49.6285 54.2548 49.524 54.3026 49.3629 54.3699 49.6285 53.2782 49.9012 52.2254 50.1996 51.1868 50.3692 50.5924 50.025 49.9731 49.4307 49.8034 49.3289 49.7743 49.2235 49.7599 49.1176 49.7604 48.8609 49.8615 48.6651 50.0751 48.5864 50.3395 48.1667 51.7863 47.8125 53.2498 47.4282 54.8073L47.2423 55.5661 47.1927 55.7653C46.3844 59.258 45.3857 62.7039 44.2009 66.0875 41.4375 73.9535 36.7961 77.2083 34.8332 78.2779L11.939 57.8381C13.5525 56.4827 14.9344 54.8734 16.0305 53.0736 18.6453 48.9651 20.5487 44.4452 21.6608 39.7039 21.7465 39.3709 21.6336 39.0184 21.3704 38.7972L20.2973 37.9047C20.0517 37.7036 19.83 37.4748 19.6368 37.2229L19.5544 37.1176C19.3211 36.8068 19.1181 36.4744 18.9479 36.125 18.7809 35.7426 18.3697 35.5286 17.9607 35.6115 17.0567 35.7956 14.2171 36.1046 13.0626 35.1484 12.7872 34.9217 12.7863 34.7464 12.7854 34.68 12.8949 34.1446 13.2136 33.6751 13.6708 33.3758 14.0455 33.0615 14.0942 32.5029 13.7799 32.1284 13.6114 31.9276 13.3627 31.8119 13.1006 31.8121L13.0962 31.8121C9.60411 31.8068 8.17771 30.1591 7.89969 29.2736 7.60382 28.2206 8.08338 27.104 9.05073 26.5935 9.48007 26.3594 9.6382 25.8215 9.4041 25.3922 9.28244 25.1692 9.07092 25.0091 8.82318 24.9528 7.83682 24.727 5.06724 23.7903 4.10302 22.1779 3.12906 20.5842 3.30615 17.8102 4.07646 15.5966 4.07904 15.5925 4.08449 15.5912 4.08865 15.5938 4.08981 15.5945 4.09079 15.5955 4.09151 15.5966 5.67906 17.4852 8.13167 18.4946 9.98573 19.1197 12.0549 19.8151 14.1917 20.2899 16.3607 20.5364 18.3777 20.802 19.5952 20.9676 20.9277 22.2718 22.4229 23.9294 23.2575 26.0781 23.2732 28.3103 23.2773 28.4126 23.2985 28.5135 23.336 28.6087 22.2806 31.2711 21.5448 33.5033 20.9808 35.4264 20.8735 35.9035 21.1733 36.3773 21.6504 36.4846 22.0875 36.5829 22.5292 36.3392 22.6791 35.9169 23.4664 33.2358 24.4008 30.6001 25.4779 28.0217 29.086 19.4181 35.0503 12.0083 42.6842 6.64505L67.6529 24.7917C64.2458 27.5542 57.0598 33.8114 52.9701 40.4857 52.0923 41.911 51.3039 43.3896 50.6095 44.9128 50.3253 45.5193 50.0703 46.1134 49.8374 46.6995 49.7346 46.939 49.8455 47.2165 50.085 47.3193 50.2038 47.3703 50.3384 47.3703 50.4572 47.3193L51.6419 46.8359 51.8075 46.742C54.2141 44.934 58.743 42.1565 62.5724 43.342 64.8594 44.0504 65.8484 45.313 67.4909 47.407 69.1579 49.6188 71.0371 51.6623 73.1018 53.5084 75.2719 55.4404 77.7777 57.4671 80.6668 57.908 80.6716 57.9088 80.6749 57.9133 80.6741 57.9182 80.6739 57.9193 80.6735 57.9203 80.673 57.9213 78.9792 60.2269 76.2751 62.2333 73.8783 62.1076Z" fill="#18BDCF" fill-rule="nonzero" fill-opacity="1"/></g></g></svg>